<?xml version="1.0" standalone="no"?>
<!DOCTYPE svg PUBLIC "-//W3C//DTD SVG 20010904//EN"
 "http://www.w3.org/TR/2001/REC-SVG-20010904/DTD/svg10.dtd">
<svg version="1.0" xmlns="http://www.w3.org/2000/svg"
 width="225.000000pt" height="225.000000pt" viewBox="0 0 225.000000 225.000000"
 preserveAspectRatio="xMidYMid meet">

<g transform="translate(0.000000,225.000000) scale(0.100000,-0.100000)"
fill="#000000" stroke="none">
<path d="M796 1511 c-158 -69 -288 -130 -288 -136 0 -15 583 -266 617 -266 35
0 617 251 617 266 0 18 -583 265 -622 264 -21 -1 -149 -51 -324 -128z"/>
<path d="M1638 1264 c-5 -4 -8 -99 -8 -211 0 -194 -1 -205 -22 -233 l-22 -30
22 -30 c17 -22 22 -43 22 -90 0 -33 4 -60 10 -60 6 0 10 30 10 69 0 52 4 70
15 75 19 7 19 50 0 66 -12 10 -15 52 -17 232 -2 121 -6 216 -10 212z"/>
<path d="M740 1031 l0 -170 35 -26 c83 -64 281 -103 429 -85 136 17 225 48
279 98 l27 26 0 157 c0 87 -3 160 -7 162 -5 3 -84 -29 -178 -69 -93 -41 -183
-74 -200 -74 -16 0 -108 34 -203 75 -96 41 -176 75 -178 75 -2 0 -4 -76 -4
-169z"/>
<path d="M1943 562 c-46 -20 -83 -40 -83 -45 0 -4 14 -14 31 -21 30 -13 32
-16 33 -72 1 -55 3 -60 31 -74 42 -20 146 -18 180 4 24 16 26 22 24 74 -2 39
1 57 10 60 10 3 13 -12 11 -69 -4 -114 -2 -135 12 -121 7 7 11 45 9 106 -1 56
2 97 9 101 5 3 10 10 10 14 0 9 -163 81 -182 80 -7 0 -50 -17 -95 -37z"/>
<path d="M1903 253 c-10 -3 -13 -39 -13 -129 l0 -125 153 3 152 3 3 111 c4
148 8 144 -156 143 -70 0 -133 -3 -139 -6z m37 -62 c0 -22 5 -42 13 -44 6 -3
2 -6 -10 -6 -21 -1 -23 4 -23 44 0 25 5 45 10 45 6 0 10 -18 10 -39z m80 22
c10 -17 10 -17 20 0 6 9 20 17 30 17 26 0 26 -16 0 -23 -22 -6 -28 -41 -8 -53
8 -5 9 0 6 14 -4 15 -2 22 8 22 8 0 14 -10 14 -25 0 -30 -33 -35 -49 -7 -9 16
-10 16 -16 0 -9 -24 -42 -23 -55 1 -13 24 3 71 24 71 8 0 20 -8 26 -17z m129
3 c7 -8 11 -27 9 -43 -2 -22 -8 -28 -28 -28 -20 0 -26 6 -28 28 -3 27 12 57
28 57 4 0 13 -6 19 -14z m-209 -142 c0 -27 -4 -43 -10 -39 -5 3 -10 24 -10 46
0 21 5 39 10 39 6 0 10 -21 10 -46z m70 37 c0 -5 -7 -11 -15 -15 -20 -7 -19
-33 2 -45 10 -5 14 -13 10 -17 -22 -22 -57 36 -43 72 6 15 46 20 46 5z m76
-15 c7 -27 -10 -66 -29 -66 -21 0 -37 22 -37 50 0 33 7 40 36 40 17 0 25 -7
30 -24z m43 7 c10 -17 10 -17 11 0 0 9 5 17 10 17 6 0 10 -20 10 -45 0 -48
-15 -59 -30 -22 l-9 22 0 -22 c-2 -44 -21 -23 -21 22 0 47 12 58 29 28z"/>
<path d="M1982 185 c4 -33 22 -33 26 0 2 18 -1 25 -13 25 -12 0 -15 -7 -13
-25z"/>
<path d="M2120 180 c0 -16 5 -30 10 -30 6 0 10 14 10 30 0 17 -4 30 -10 30 -5
0 -10 -13 -10 -30z"/>
<path d="M2043 84 c-3 -8 -1 -20 6 -27 8 -8 11 -4 11 16 0 30 -7 35 -17 11z"/>
</g>
</svg>
